<?xml version="1.0" encoding="UTF-8"?>
<svg width="18px" height="16px" viewBox="0 0 18 16" version="1.1" xmlns="http://www.w3.org/2000/svg" xmlns:xlink="http://www.w3.org/1999/xlink">
    <!-- Generator: Sketch 45.1 (43504) - http://www.bohemiancoding.com/sketch -->
    <title>未标题-1-04</title>
    <desc>Created with Sketch.</desc>
    <defs></defs>
    <g id="Page-1" stroke="none" stroke-width="1" fill="none" fill-rule="evenodd">
        <g id="iPhone-7" transform="translate(-152.000000, -415.000000)" fill-rule="nonzero" fill="#FF6159">
            <g id="未标题-1-04" transform="translate(152.000000, 415.000000)">
                <path d="M17.8957337,4.93377686 C17.7864917,3.69880448 17.2660217,2.5385788 16.4202261,1.64459229 C15.6229911,0.834281656 14.5414595,0.37901847 13.4137058,0.37901847 C12.2859521,0.37901847 11.2044206,0.834281656 10.4071856,1.64459229 C9.8703141,2.210746 9.40425207,2.84202579 9.01956081,3.52412633 C8.63486956,2.84202579 8.16880753,2.210746 7.63193607,1.64459229 C6.83470106,0.834281656 5.75316952,0.37901847 4.6254158,0.37901847 C3.49766209,0.37901847 2.41613055,0.834281656 1.61889553,1.64459229 C0.773099956,2.5385788 0.252629966,3.69880448 0.14338789,4.93377686 C0.106384563,5.40366037 0.0601304054,6.73812953 1.15635395,8.69284494 C3.27479439,12.451913 7.43304319,14.5522923 9.01956081,15.2712141 C10.6060784,14.5522923 14.7643272,12.451913 16.8827677,8.69284494 C17.9789912,6.73812953 17.9327371,5.3942627 17.8957337,4.93377686 Z" id="Shape"></path>
            </g>
        </g>
    </g>
</svg>