<?xml version="1.0" encoding="UTF-8"?>
<svg width="20px" height="17px" viewBox="0 0 20 17" version="1.1" xmlns="http://www.w3.org/2000/svg" xmlns:xlink="http://www.w3.org/1999/xlink">
    <!-- Generator: Sketch 45.1 (43504) - http://www.bohemiancoding.com/sketch -->
    <title>未标题-1-03</title>
    <desc>Created with Sketch.</desc>
    <defs></defs>
    <g id="Page-1" stroke="none" stroke-width="1" fill="none" fill-rule="evenodd" stroke-linecap="round" stroke-linejoin="round">
        <g id="iPhone-7" transform="translate(-330.000000, -350.000000)" stroke="#9B9B9B">
            <g id="未标题-1-03" transform="translate(331.000000, 351.000000)">
                <path d="M17.8569231,4.84615385 C17.7479179,3.63311437 17.2285767,2.49349409 16.3846154,1.61538462 C15.5891093,0.819464961 14.5099233,0.372287169 13.3846154,0.372287169 C12.2593074,0.372287169 11.1801214,0.819464961 10.3846154,1.61538462 C9.84890825,2.17148354 9.38385697,2.79155191 9,3.46153846 C8.61614303,2.79155191 8.15109175,2.17148354 7.61538462,1.61538462 C6.81987857,0.819464961 5.74069256,0.372287169 4.61538462,0.372287169 C3.49007667,0.372287169 2.41089066,0.819464961 1.61538462,1.61538462 C0.771423326,2.49349409 0.252082084,3.63311437 0.143076923,4.84615385 C0.106153846,5.30769231 0.06,6.61846154 1.15384615,8.53846154 C3.26769231,12.2307692 7.41692308,14.2938462 9,15 C10.5830769,14.2938462 14.7323077,12.2307692 16.8461538,8.53846154 C17.94,6.61846154 17.8938462,5.29846154 17.8569231,4.84615385 Z" id="Shape"></path>
            </g>
        </g>
    </g>
</svg>