<svg  ><symbol viewBox="0 0 23 19" id="comment" ><g transform="translate(1)" fill="none" fill-rule="evenodd"><path d="M17.89 1.033H3.553C1.854 1.033.477 2.356.477 3.989v8.226c-.003.786.32 1.54.897 2.097a3.14 3.14 0 0 0 2.179.87h4.779L10.722 19l2.389-3.818h4.779a3.14 3.14 0 0 0 2.175-.866 2.9 2.9 0 0 0 .9-2.09V3.988a2.9 2.9 0 0 0-.9-2.09 3.14 3.14 0 0 0-2.175-.866z" stroke="#545454" stroke-linecap="round" stroke-linejoin="round"/><g transform="translate(4.54 7)" fill-rule="nonzero" fill="#454545"><ellipse cx=".971" cy="1.396" rx="1" ry="1"/><ellipse cx="6.181" cy="1.396" rx="1" ry="1"/><ellipse cx="11.391" cy="1.396" rx="1" ry="1"/></g><rect fill="#545454" x="14" y=".54" width="3" height="1" rx=".5"/><rect fill="#545454" transform="rotate(90 20.96 6.5)" x="19.46" y="6" width="3" height="1" rx=".5"/></g></symbol><symbol viewBox="0 0 16 16" id="report" ><g transform="translate(1 1)" fill="none" fill-rule="evenodd"><path d="M7 3.132v4.8" stroke="#929292" stroke-linecap="round" stroke-linejoin="round"/><circle fill="#929292" fill-rule="nonzero" transform="rotate(-45 7.03 10.334)" cx="7.031" cy="10.334" r="1"/><circle stroke="#929292" stroke-linecap="round" stroke-linejoin="round" cx="7.029" cy="7" r="6.816"/></g></symbol><symbol viewBox="0 0 25 20" id="transmit" ><path d="M24 9.727L16.191 1.48a.714.714 0 0 0-1.227.485v4.762c-8.762 0-13.553 3.878-13.69 12 3.286-4.363 7.119-6 13.69-6v4.762a.714.714 0 0 0 1.227.485L24 9.728z" stroke="#454545" fill="none" fill-rule="evenodd" stroke-linecap="round" stroke-linejoin="round"/></symbol><symbol viewBox="0 0 15 16" id="write_comment" ><g stroke="#929292" fill="none" fill-rule="evenodd" stroke-linecap="round" stroke-linejoin="round"><path d="M6.18 2.115L1.46 10.338l-.264 5.074 4.24-2.766 4.719-8.223a2.238 2.238 0 0 0-.811-3.038l-.13-.077A2.206 2.206 0 0 0 7.53 1.08a2.22 2.22 0 0 0-1.35 1.035zM1.191 15.348h12.683"/></g></symbol><symbol viewBox="0 0 18 16" id="zan_red" ><path d="M17.896 4.934a5.49 5.49 0 0 0-1.476-3.29A4.217 4.217 0 0 0 13.414.38c-1.128 0-2.21.455-3.007 1.266a9.547 9.547 0 0 0-1.387 1.88 9.547 9.547 0 0 0-1.388-1.88A4.217 4.217 0 0 0 4.625.379c-1.127 0-2.209.455-3.006 1.266A5.49 5.49 0 0 0 .143 4.934c-.037.47-.083 1.804 1.013 3.759 2.119 3.759 6.277 5.86 7.864 6.578 1.586-.719 5.744-2.82 7.863-6.578 1.096-1.955 1.05-3.299 1.013-3.76z" fill-rule="nonzero" fill="#FF6159"/></symbol><symbol viewBox="0 0 20 17" id="zan_white" ><path d="M18.857 5.846a5.354 5.354 0 0 0-1.472-3.23 4.242 4.242 0 0 0-6 0c-.536.555-1.001 1.176-1.385 1.846a9.388 9.388 0 0 0-1.385-1.847 4.242 4.242 0 0 0-6 0 5.354 5.354 0 0 0-1.472 3.231c-.037.462-.083 1.772 1.01 3.692C4.269 13.231 8.418 15.294 10 16c1.583-.706 5.732-2.77 7.846-6.462 1.094-1.92 1.048-3.24 1.01-3.692z" stroke="#9B9B9B" fill="none" fill-rule="evenodd" stroke-linecap="round" stroke-linejoin="round"/></symbol></svg>